<svg width="30" height="30" viewBox="0 0 30 30" fill="none" xmlns="http://www.w3.org/2000/svg">
<path d="M14.94 8.25579C15.03 8.23577 15.1201 8.23577 15.2101 8.25579C15.2502 8.26579 15.9982 8.581 17.4541 9.20141C18.9101 9.82182 19.6731 10.152 19.7431 10.1921C19.9533 10.3121 20.0658 10.4747 20.0808 10.6799C20.0959 10.885 20.0308 11.0601 19.8857 11.2052C19.7406 11.3503 19.563 11.4029 19.3529 11.3628C19.3228 11.3528 18.6424 11.0676 17.3115 10.5073C15.8305 9.87685 15.0826 9.56165 15.0675 9.56165C15.0525 9.56165 14.6398 9.73676 13.8292 10.087C11.908 10.9075 10.8973 11.3328 10.7972 11.3628C10.6471 11.3929 10.5045 11.3653 10.3694 11.2803C10.2344 11.1952 10.1418 11.0801 10.0918 10.9351C10.0417 10.79 10.0517 10.6374 10.1218 10.4773C10.1418 10.4272 10.1768 10.3747 10.2268 10.3196C10.2769 10.2646 10.3219 10.2271 10.3619 10.2071C10.402 10.1871 11.1675 9.85934 12.6585 9.22392C14.1494 8.58851 14.9099 8.26579 14.94 8.25579ZM9.28122 12.6387C9.31124 12.6287 11.2525 12.6237 15.1051 12.6237L20.8689 12.6387C21.129 12.7688 21.2841 12.9339 21.3342 13.134C21.3642 13.3041 21.3192 13.4642 21.1991 13.6143C21.079 13.7644 20.9439 13.8495 20.7938 13.8695L20.7188 13.8845L20.7038 16.6913V19.4982C20.9839 19.5482 21.1741 19.6683 21.2741 19.8584C21.3542 20.0286 21.3517 20.2062 21.2666 20.3913C21.1816 20.5764 21.039 20.694 20.8388 20.744C20.7988 20.754 18.8801 20.759 15.0826 20.759C11.285 20.759 9.36128 20.754 9.31124 20.744C9.11111 20.694 8.97102 20.5764 8.89097 20.3913C8.81091 20.2062 8.81342 20.0235 8.89847 19.8434C8.98353 19.6633 9.13613 19.5532 9.35627 19.5132L9.44633 19.4982V16.6913L9.43132 13.8845C9.16115 13.8345 8.97602 13.7144 8.87596 13.5243C8.7959 13.3541 8.7959 13.179 8.87596 12.9989C8.95601 12.8188 9.0911 12.6987 9.28122 12.6387ZM10.7072 13.8845V19.4982H19.4429V13.8845H10.7072ZM11.968 15.5656C12.028 15.3855 12.1431 15.2579 12.3132 15.1829C12.4833 15.1078 12.6534 15.1053 12.8236 15.1754C12.9937 15.2454 13.1087 15.3755 13.1688 15.5656C13.1788 15.6056 13.1888 15.6807 13.1988 15.7908V17.5919C13.1888 17.702 13.1788 17.7771 13.1688 17.8171C13.1087 17.9972 12.9937 18.1223 12.8236 18.1923C12.6534 18.2624 12.4833 18.2649 12.3132 18.1998C12.1431 18.1348 12.028 18.0072 11.968 17.8171C11.958 17.7871 11.953 17.642 11.953 17.3818V16.0009C11.953 15.7407 11.958 15.5956 11.968 15.5656ZM14.4596 15.6256C14.4897 15.4455 14.5822 15.3104 14.7373 15.2204C14.8924 15.1303 15.0575 15.1053 15.2327 15.1453C15.4078 15.1854 15.5404 15.2954 15.6304 15.4755C15.6704 15.5456 15.693 15.6332 15.698 15.7382C15.703 15.8433 15.7055 16.166 15.7055 16.7064C15.7055 17.2467 15.703 17.5694 15.698 17.6745C15.693 17.7796 15.6654 17.8721 15.6154 17.9522C15.5854 18.0022 15.5404 18.0522 15.4803 18.1023C15.3602 18.2023 15.2251 18.2524 15.075 18.2524C14.9249 18.2524 14.7899 18.2023 14.6698 18.1023C14.6097 18.0522 14.5647 18.0022 14.5347 17.9522C14.4947 17.8721 14.4696 17.7796 14.4596 17.6745C14.4496 17.5694 14.4446 17.2417 14.4446 16.6913C14.4446 16.0209 14.4496 15.6657 14.4596 15.6256ZM17.4916 15.1303C17.3816 15.1403 17.279 15.1879 17.1839 15.2729C17.0889 15.358 17.0213 15.4555 16.9813 15.5656C16.9713 15.6056 16.9613 15.6807 16.9513 15.7908V17.5919C16.9613 17.702 16.9713 17.7771 16.9813 17.8171C17.0413 18.0072 17.1564 18.1348 17.3265 18.1998C17.4966 18.2649 17.6643 18.2624 17.8294 18.1923C17.9945 18.1223 18.1121 17.9972 18.1821 17.8171C18.1921 17.7871 18.1971 17.642 18.1971 17.3818V15.9859C18.1971 15.7357 18.1921 15.5956 18.1821 15.5656C18.1321 15.4155 18.0445 15.3004 17.9194 15.2204C17.7943 15.1403 17.6517 15.1103 17.4916 15.1303Z" fill="white"/>
</svg>
