<svg width="30" height="30" viewBox="0 0 30 30" fill="none" xmlns="http://www.w3.org/2000/svg">
<path d="M16.1406 8.90119C15.9905 8.95123 15.8704 9.05129 15.7804 9.20139C15.7604 9.23141 15.4101 10.5948 14.7297 13.2916C14.0492 15.9884 13.7065 17.3418 13.7015 17.3518C13.6965 17.3618 13.4789 16.7964 13.0486 15.6556C12.6883 14.695 12.4982 14.1997 12.4782 14.1697C12.4382 14.0996 12.3781 14.0396 12.2981 13.9895C12.218 13.9395 12.138 13.9045 12.0579 13.8845C11.9979 13.8745 11.5401 13.8695 10.6845 13.8695C9.82895 13.8695 9.37615 13.8745 9.32612 13.8845C9.11598 13.9345 8.97089 14.0496 8.89083 14.2297C8.81078 14.4098 8.80828 14.5899 8.88333 14.7701C8.95838 14.9502 9.10598 15.0653 9.32612 15.1153C9.36615 15.1253 9.74139 15.1303 10.4519 15.1303H11.5176L12.3731 17.4268C12.9335 18.9478 13.2337 19.7383 13.2737 19.7984C13.3438 19.9385 13.4538 20.0335 13.6039 20.0836C13.754 20.1336 13.9041 20.1336 14.0542 20.0836C14.2043 20.0335 14.3144 19.9335 14.3845 19.7834C14.4045 19.7433 14.7497 18.3824 15.4201 15.7007L16.4408 11.648C16.4508 11.638 16.671 12.2034 17.1012 13.3441C17.4615 14.3048 17.6516 14.8001 17.6716 14.8301C17.7117 14.9002 17.7717 14.9602 17.8517 15.0102C17.9318 15.0603 18.0118 15.0953 18.0919 15.1153C18.1519 15.1253 18.6097 15.1303 19.4653 15.1303C20.3209 15.1303 20.7737 15.1253 20.8237 15.1153C21.0438 15.0653 21.1914 14.9502 21.2665 14.7701C21.3415 14.5899 21.339 14.4098 21.259 14.2297C21.1789 14.0496 21.0338 13.9345 20.8237 13.8845C20.7837 13.8745 20.4084 13.8695 19.698 13.8695H18.6323L17.7767 11.573C17.2163 10.052 16.9161 9.26143 16.8761 9.20139C16.8061 9.08131 16.701 8.98875 16.5609 8.92371C16.4208 8.85867 16.2807 8.85116 16.1406 8.90119Z" fill="white"/>
</svg>
