<svg width="30" height="30" viewBox="0 0 30 30" fill="none" xmlns="http://www.w3.org/2000/svg">
<path d="M15.0751 20.7441C13.9343 20.7441 12.8786 20.464 11.908 19.9036C10.9673 19.3532 10.2219 18.6077 9.67149 17.6671C9.11112 16.6965 8.83093 15.6408 8.83093 14.5C8.83093 13.6495 8.99354 12.8339 9.31875 12.0534C9.64397 11.2729 10.1068 10.5874 10.7072 9.99705C11.3276 9.39666 12.0531 8.94636 12.8836 8.64616C13.7642 8.32595 14.7098 8.20087 15.7205 8.27091C16.7412 8.38099 17.6668 8.7112 18.4973 9.26157C19.2778 9.7719 19.9132 10.4323 20.4036 11.2429C20.8839 12.0334 21.1791 12.8865 21.2892 13.8021C21.3992 14.7177 21.3092 15.6007 21.019 16.4513C20.7488 17.2719 20.326 18.0073 19.7506 18.6578C19.1753 19.3082 18.4923 19.8135 17.7018 20.1738C16.8812 20.554 16.0057 20.7441 15.0751 20.7441ZM20.0283 15.1454C20.1484 14.1948 20.0133 13.2942 19.6231 12.4437C19.2528 11.6331 18.7024 10.9652 17.972 10.4398C17.2415 9.9145 16.4359 9.6068 15.5554 9.51674C14.6147 9.42668 13.7041 9.60179 12.8236 10.0421C12.2432 10.3423 11.7679 10.6975 11.3976 11.1078C10.6972 11.8683 10.2719 12.7439 10.1218 13.7345C9.9917 14.6651 10.1143 15.5707 10.4895 16.4513C10.8648 17.3319 11.4276 18.0424 12.1781 18.5827C12.9887 19.1631 13.9043 19.4683 14.925 19.4983C15.7655 19.5283 16.5535 19.3582 17.289 18.988C18.0245 18.6177 18.6324 18.1024 19.1127 17.442C19.603 16.7615 19.9082 15.996 20.0283 15.1454ZM13.424 11.1378C14.0644 10.8176 14.7298 10.6925 15.4203 10.7626C16.0807 10.8226 16.6861 11.0502 17.2365 11.4455C17.7868 11.8408 18.2021 12.3386 18.4823 12.939C18.7825 13.5894 18.8876 14.2849 18.7975 15.0254C18.6774 15.7458 18.4072 16.3663 17.987 16.8866C17.5867 17.3669 17.0964 17.7246 16.516 17.9598C15.9356 18.195 15.3352 18.285 14.7148 18.23C14.0944 18.1749 13.529 17.9773 13.0187 17.6371C12.4583 17.2668 12.0255 16.774 11.7203 16.1586C11.4151 15.5432 11.2851 14.9078 11.3301 14.2524C11.3751 13.5969 11.5827 12.9915 11.953 12.4362C12.3232 11.8808 12.8136 11.448 13.424 11.1378ZM14.8949 12.0084C14.3946 12.0384 13.9418 12.216 13.5365 12.5412C13.1313 12.8664 12.8486 13.2692 12.6885 13.7495C12.5284 14.2699 12.5334 14.7852 12.7035 15.2955C12.8536 15.7358 13.1113 16.1086 13.4765 16.4138C13.8417 16.719 14.2545 16.9066 14.7148 16.9767C15.2151 17.0467 15.708 16.9641 16.1933 16.729C16.6786 16.4938 17.0438 16.1411 17.289 15.6708C17.5342 15.2005 17.6217 14.7052 17.5517 14.1848C17.4816 13.6445 17.2565 13.1691 16.8762 12.7589C16.6761 12.5487 16.4334 12.3736 16.1483 12.2335C15.8631 12.0934 15.5804 12.0184 15.3002 12.0084H14.8949ZM14.8649 13.2692C14.6548 13.3092 14.4646 13.3943 14.2945 13.5244C13.9943 13.7545 13.8442 14.0797 13.8442 14.5C13.8442 14.6701 13.8793 14.8402 13.9493 15.0104C14.0294 15.2205 14.1544 15.3856 14.3246 15.5057C14.5247 15.6558 14.7749 15.7308 15.0751 15.7308C15.4353 15.7308 15.7305 15.6208 15.9606 15.4006C16.1908 15.1805 16.3059 14.8803 16.3059 14.5C16.3059 14.1898 16.2258 13.9296 16.0657 13.7195C15.9356 13.5594 15.7655 13.4343 15.5554 13.3443C15.3953 13.2842 15.2452 13.2542 15.1051 13.2542C15.045 13.2542 14.975 13.2592 14.8949 13.2692H14.8649Z" fill="white"/>
</svg>
