<svg width="30" height="30" viewBox="0 0 30 30" fill="none" xmlns="http://www.w3.org/2000/svg">
<path d="M16.1407 10.7774C16.0406 10.8175 15.9556 10.8725 15.8855 10.9426C15.7655 11.0526 15.7054 11.1927 15.7054 11.3628C15.7054 11.5329 15.7554 11.673 15.8555 11.7831C15.9155 11.8431 16.0156 11.9082 16.1557 11.9782L17.6717 11.9932H19.1877C18.0269 13.164 16.8662 14.3298 15.7054 15.4906L13.7541 13.5543C13.604 13.4142 13.5015 13.3316 13.4464 13.3066C13.3914 13.2816 13.3288 13.2691 13.2588 13.2691H13.1387C13.0787 13.2591 13.0286 13.2641 12.9886 13.2841C12.9286 13.3141 12.8335 13.3892 12.7034 13.5092C12.5733 13.6293 12.3632 13.8295 12.073 14.1096L9.46129 16.7364C9.1711 17.0166 8.99098 17.2067 8.92093 17.3068C8.8709 17.3768 8.84088 17.4468 8.83088 17.5169V17.5469C8.80086 17.717 8.83338 17.8646 8.92844 17.9897C9.0235 18.1148 9.15109 18.1948 9.31119 18.2299C9.4713 18.2649 9.6214 18.2424 9.76149 18.1623C9.85155 18.1023 10.4369 17.5319 11.5176 16.4512L13.1988 14.7701L14.2645 15.8358L15.06 16.6163C15.2301 16.7764 15.3452 16.8765 15.4052 16.9165C15.4552 16.9465 15.5103 16.9715 15.5703 16.9915H15.6003C15.7404 17.0116 15.8605 16.9965 15.9606 16.9465C16.0006 16.9265 16.1357 16.8064 16.3658 16.5863C16.636 16.3261 17.2014 15.7657 18.062 14.9052L20.0733 12.8938V14.3348C20.0733 15.2554 20.0833 15.7757 20.1033 15.8958C20.1533 16.096 20.2659 16.2335 20.441 16.3086C20.6161 16.3836 20.7913 16.3836 20.9664 16.3086C21.1415 16.2335 21.2541 16.096 21.3041 15.8958C21.3241 15.7757 21.3341 14.9952 21.3341 13.5543V11.9032C21.3341 11.583 21.3291 11.3728 21.3191 11.2728C21.3091 11.2027 21.2891 11.1427 21.2591 11.0927V11.0776C21.219 11.0076 21.169 10.9476 21.109 10.8975C21.0689 10.8675 20.9889 10.8175 20.8688 10.7474H16.546C16.3158 10.7574 16.1807 10.7674 16.1407 10.7774Z" fill="white"/>
</svg>
