<svg width="30" height="30" viewBox="0 0 30 30" fill="none" xmlns="http://www.w3.org/2000/svg">
<path d="M15.5701 10.1351C15.3701 10.1851 15.2251 10.3026 15.1351 10.4876C15.0451 10.6726 15.0501 10.8601 15.1501 11.0501C15.1901 11.1101 15.6601 11.5901 16.5601 12.4901L17.9251 13.8701H14.2951C11.8651 13.8701 10.6301 13.8751 10.5901 13.8851C10.4901 13.8951 10.4001 13.9351 10.3201 14.0051C10.2401 14.0751 10.1751 14.1551 10.1251 14.2451C10.1051 14.2851 10.0951 14.3401 10.0951 14.4101V14.5901C10.0951 14.6601 10.1051 14.7151 10.1251 14.7551C10.1751 14.8451 10.2401 14.9251 10.3201 14.9951C10.4001 15.0651 10.4901 15.1051 10.5901 15.1151C10.6301 15.1251 11.8651 15.1301 14.2951 15.1301H17.9251L16.5601 16.5101C15.6601 17.4101 15.1901 17.8901 15.1501 17.9501C15.0701 18.1101 15.0526 18.2651 15.0976 18.4151C15.1426 18.5651 15.2326 18.6826 15.3676 18.7676C15.5026 18.8526 15.6451 18.8851 15.7951 18.8651H15.8251C15.8851 18.8551 15.9451 18.8301 16.0051 18.7901C16.0851 18.7301 16.2401 18.5901 16.4701 18.3701L18.0301 16.8101C18.7301 16.1101 19.2001 15.6401 19.4401 15.4001C19.7101 15.1101 19.8851 14.9151 19.9651 14.8151C20.0151 14.7551 20.0501 14.6901 20.0701 14.6201V14.5901C20.0901 14.4601 20.0701 14.3401 20.0101 14.2301C19.9501 14.1201 19.2751 13.4251 17.9851 12.1451C16.7251 10.8851 16.0751 10.2451 16.0351 10.2251C15.9751 10.1851 15.9001 10.1576 15.8101 10.1426C15.7201 10.1276 15.6401 10.1251 15.5701 10.1351Z" fill="white"/>
</svg>
