<svg width="30" height="30" viewBox="0 0 30 30" fill="none" xmlns="http://www.w3.org/2000/svg">
<path d="M11.7751 8.26023C11.7751 8.26023 11.8051 8.26023 11.8651 8.26023C12.9951 8.25023 14.0851 8.24523 15.1351 8.24523H17.9251C18.2651 8.25523 18.4551 8.26523 18.4951 8.27523C18.6851 8.32523 18.8551 8.41523 19.0051 8.54523C19.1551 8.67523 19.2701 8.82523 19.3501 8.99523V9.01023C19.4001 9.12023 19.4301 9.22023 19.4401 9.31024C19.4501 9.40023 19.4551 9.65023 19.4551 10.0602C19.4551 10.5702 19.4451 10.9502 19.4251 11.2002C19.3851 11.6102 19.3001 11.9852 19.1701 12.3252C19.0201 12.7252 18.7951 13.1102 18.4951 13.4802C18.3651 13.6402 18.2076 13.8052 18.0226 13.9752C17.8376 14.1452 17.6601 14.2852 17.4901 14.3952L17.3401 14.5002L17.4901 14.6052C17.8601 14.8452 18.1901 15.1502 18.4801 15.5202C18.9601 16.1102 19.2651 16.7852 19.3951 17.5452C19.4251 17.6952 19.4451 17.8652 19.4551 18.0552C19.4551 18.1952 19.4551 18.4927 19.4551 18.9477C19.4551 19.4027 19.4451 19.6802 19.4251 19.7802C19.3551 20.0202 19.2376 20.2227 19.0726 20.3877C18.9076 20.5527 18.7101 20.6652 18.4801 20.7252C18.4501 20.7352 18.3701 20.7402 18.2401 20.7402H11.8801C11.7601 20.7402 11.6851 20.7352 11.6551 20.7252C11.4551 20.6752 11.2801 20.5852 11.1301 20.4552C10.9801 20.3252 10.8701 20.1702 10.8001 19.9902L10.7851 19.9602C10.7451 19.8602 10.7201 19.7652 10.7101 19.6752C10.7001 19.5652 10.6951 19.3202 10.6951 18.9402C10.6951 18.4102 10.7101 18.0052 10.7401 17.7252C10.8001 17.2552 10.9101 16.8302 11.0701 16.4502C11.2801 15.9902 11.5851 15.5602 11.9851 15.1602C12.1951 14.9502 12.4201 14.7652 12.6601 14.6052L12.8101 14.5002L12.6601 14.3952C12.2301 14.1152 11.8551 13.7552 11.5351 13.3152C11.1351 12.7552 10.8751 12.1352 10.7551 11.4552C10.7251 11.3052 10.7101 11.1302 10.7101 10.9302C10.7001 10.8002 10.6951 10.5102 10.6951 10.0602C10.6951 9.68023 10.7001 9.43524 10.7101 9.32523C10.7201 9.23523 10.7451 9.14023 10.7851 9.04023L10.8001 9.01023C10.8801 8.81024 11.0101 8.64273 11.1901 8.50773C11.3701 8.37274 11.5651 8.29023 11.7751 8.26023ZM11.9551 9.50523V10.7502H18.1951V9.50523H11.9551ZM12.2251 12.0252C12.2251 12.0452 12.2601 12.1202 12.3301 12.2502C12.4401 12.4302 12.5601 12.6002 12.6901 12.7602C12.8901 12.9902 13.1101 13.1852 13.3501 13.3452C13.6501 13.5452 13.9751 13.6902 14.3251 13.7802C14.7351 13.8802 15.1501 13.8952 15.5701 13.8252C16.0501 13.7552 16.4801 13.5802 16.8601 13.3002C17.3001 12.9902 17.6551 12.5652 17.9251 12.0252L15.0751 12.0102L12.2251 12.0252ZM17.9251 16.9752C17.6151 16.3652 17.1951 15.9002 16.6651 15.5802C16.1751 15.2802 15.6426 15.1327 15.0676 15.1377C14.4926 15.1427 13.9601 15.2902 13.4701 15.5802C12.9601 15.8802 12.5651 16.3002 12.2851 16.8402L12.2251 16.9752L15.0751 16.9902L17.9251 16.9752ZM11.9551 18.8802V19.4952H18.1951V18.2502H11.9551V18.8802Z" fill="white"/>
</svg>
